<svg width="115" height="38" viewBox="0 0 115 38" fill="none" xmlns="http://www.w3.org/2000/svg">
<path d="M1.47756 37.3725H4.42017C4.49115 37.3725 4.53794 37.3255 4.53794 37.2542V35.8293C4.53794 35.758 4.49115 35.711 4.42017 35.711H3.07308C3.0021 35.711 2.95532 35.664 2.95532 35.5927V33.9895C2.95532 33.9182 3.0021 33.8712 3.07308 33.8712H4.31369C4.38468 33.8712 4.43146 33.8242 4.43146 33.7528V32.341C4.43146 32.2696 4.38468 32.2226 4.31369 32.2226H3.07308C3.0021 32.2226 2.95532 32.1756 2.95532 32.1043V30.9518C2.95532 30.7978 3.03759 30.7151 3.28604 30.7151C3.58127 30.7151 4.00717 30.7751 4.33789 30.9761C4.46857 31.0474 4.53955 31.0231 4.53955 30.8934V29.1833C4.53955 29.1119 4.49277 29.0649 4.42178 29.0649H1.24202C1.13554 29.0649 1.07585 29.1363 1.10005 29.2432C1.20653 29.7425 1.24202 30.0262 1.24202 31.0474V37.1375C1.24202 37.2915 1.32429 37.3742 1.47756 37.3742V37.3725Z" fill="#0213B0"/>
<path d="M6.41875 37.4911C7.74164 37.4911 8.50956 36.4471 8.50956 35.0336C8.50956 33.9881 8.07236 33.3591 7.56418 32.7659L7.42221 32.5989C6.99631 32.1126 6.72528 31.7673 6.72528 31.3167C6.72528 31.0314 6.86724 30.7347 7.19797 30.7347C7.4932 30.7347 7.67066 30.8887 7.90619 31.234C8.07236 31.4836 8.10785 31.5307 8.20142 31.5307C8.3079 31.5307 8.34339 31.4464 8.34339 31.3167V29.9048C8.34339 29.6908 8.3079 29.5012 8.15464 29.3229C7.94169 29.0975 7.55127 28.9435 7.0447 28.9435C5.72182 28.9435 4.97649 30.0004 4.97649 31.4253C4.97649 32.4822 5.47338 33.1711 5.95736 33.7287L6.02834 33.8114C6.41875 34.262 6.74948 34.63 6.74948 35.0823C6.74948 35.3546 6.6188 35.6999 6.25259 35.6999C5.88637 35.6999 5.66213 35.4275 5.41368 35.0239C5.27172 34.7743 5.24752 34.7029 5.14104 34.7029C5.02327 34.7029 4.98778 34.8213 4.98778 34.9396V36.5298C4.98778 36.7438 5.02327 36.9334 5.17653 37.0988C5.38949 37.3354 5.79926 37.4911 6.41714 37.4911H6.41875Z" fill="#0213B0"/>
<path d="M10.1701 37.3726H11.4107C11.5639 37.3726 11.6478 37.2899 11.6478 37.1359V30.8789C11.6478 30.7962 11.6591 30.7249 11.8011 30.7249C12.0366 30.7249 12.227 30.8546 12.5932 31.0329C12.7239 31.0928 12.7933 31.0329 12.7933 30.9032V29.1817C12.7933 29.1104 12.7465 29.0634 12.6755 29.0634H8.90687C8.83589 29.0634 8.7891 29.1104 8.7891 29.1817V30.9032C8.7891 31.0345 8.86009 31.0928 8.99076 31.0329C9.35698 30.8546 9.54573 30.7249 9.78288 30.7249C9.92485 30.7249 9.93614 30.7962 9.93614 30.8789V37.1359C9.93614 37.2899 10.0184 37.3726 10.1717 37.3726H10.1701Z" fill="#0213B0"/>
<path d="M101.018 37.3726C101.172 37.3726 101.254 37.2899 101.254 37.1359V29.3C101.254 29.146 101.172 29.0634 101.018 29.0634H100.015C99.8729 29.0634 99.8261 29.1233 99.7309 29.3243C99.4712 29.882 99.1985 30.3456 98.8097 30.7962C98.6678 30.9632 98.6436 31.0572 98.6436 31.2955V32.97C98.6436 33.1013 98.6904 33.171 98.7613 33.171C98.8791 33.171 98.9614 33.017 99.2921 32.5177L99.5406 32.1497C99.5873 32.0784 99.6115 32.0671 99.6357 32.0671C99.6825 32.0671 99.6825 32.127 99.6825 32.2097V37.1359C99.6825 37.2899 99.7648 37.3726 99.9181 37.3726H101.018Z" fill="#0213B0"/>
<path d="M103.782 28.9435C102.377 28.9435 101.738 30.0361 101.738 31.8289C101.738 33.4548 102.27 34.4874 103.285 34.4874C103.662 34.4874 103.958 34.3204 104.148 34.0951C104.219 34.0124 104.29 33.9994 104.29 34.1907C104.29 35.2589 103.948 35.8765 103.38 35.8765C103.014 35.8765 102.836 35.6399 102.577 35.2362C102.481 35.0936 102.411 35.0109 102.317 35.0109C102.21 35.0109 102.164 35.1179 102.164 35.2719V36.5898C102.164 36.8621 102.223 37.0534 102.423 37.2074C102.623 37.3614 103.003 37.4927 103.498 37.4927C105.164 37.4927 105.955 35.9851 105.955 32.8518C105.955 30.1917 105.282 28.9468 103.78 28.9468L103.782 28.9435ZM103.416 31.7446C103.416 30.5224 103.582 30.2484 103.806 30.2484C104.042 30.2484 104.208 30.5337 104.208 31.7446C104.208 32.9555 104.042 33.2408 103.806 33.2408C103.57 33.2408 103.416 32.9685 103.416 31.7446Z" fill="#0213B0"/>
<path d="M106.776 37.3725H107.981C108.194 37.3725 108.252 37.3126 108.252 37.1002C108.241 34.9151 108.796 32.897 109.8 30.8318C109.906 30.6178 109.942 30.4638 109.942 30.2385V29.3016C109.942 29.1476 109.859 29.0649 109.706 29.0649H106.375C106.221 29.0649 106.139 29.1476 106.139 29.3016V30.5595C106.139 30.7135 106.221 30.7961 106.375 30.7961H107.946C108.194 30.7961 108.159 30.9145 108.064 31.0928C107.036 33.0396 106.539 34.9637 106.481 37.0759C106.47 37.3126 106.552 37.3725 106.776 37.3725Z" fill="#0213B0"/>
<path d="M112.149 37.4911C113.555 37.4911 114.193 36.3985 114.193 34.6057C114.193 32.9798 113.66 31.9472 112.645 31.9472C112.268 31.9472 111.973 32.1142 111.782 32.3395C111.711 32.4222 111.64 32.4352 111.64 32.2439C111.64 31.1756 111.982 30.5581 112.55 30.5581C112.916 30.5581 113.094 30.7947 113.354 31.2C113.449 31.3426 113.52 31.4253 113.613 31.4253C113.72 31.4253 113.767 31.3183 113.767 31.1643V29.8464C113.767 29.5741 113.707 29.3828 113.507 29.2288C113.307 29.0748 112.928 28.9435 112.432 28.9435C110.766 28.9435 109.975 30.4511 109.975 33.5844C109.975 36.2445 110.65 37.4894 112.15 37.4894L112.149 37.4911ZM111.723 34.69C111.723 33.4791 111.889 33.1938 112.124 33.1938C112.36 33.1938 112.515 33.4661 112.515 34.69C112.515 35.9138 112.349 36.1862 112.124 36.1862C111.889 36.1862 111.723 35.9009 111.723 34.69Z" fill="#0213B0"/>
<path d="M24.1763 7.15064C23.5471 7.41811 22.8227 7.564 22.029 7.564C21.2353 7.564 20.5093 7.41973 19.8801 7.15388C19.3477 6.92857 18.9234 7.19603 18.9234 7.77473V25.1777C18.9234 25.5587 19.23 25.8667 19.6091 25.8667H24.4473C24.8264 25.8667 25.1329 25.5587 25.1329 25.1777V7.77148C25.1329 7.19117 24.707 6.9237 24.1746 7.15064H24.1763Z" fill="#0213B0"/>
<path d="M22.0016 0.492676C19.9672 0.492676 18.6218 1.59657 18.6766 3.41857C18.7315 5.1579 19.9963 6.34447 22.029 6.34447C24.0617 6.34447 25.354 5.1579 25.354 3.41857C25.354 1.67925 24.0359 0.492676 22.0016 0.492676Z" fill="#0213B0"/>
<path d="M88.2702 7.15064C87.641 7.41811 86.9167 7.564 86.1229 7.564C85.3292 7.564 84.6032 7.41973 83.9741 7.15388C83.4417 6.92857 83.0174 7.19603 83.0174 7.77473V25.1777C83.0174 25.5587 83.3239 25.8667 83.703 25.8667H88.5412C88.9204 25.8667 89.2269 25.5587 89.2269 25.1777V7.77148C89.2269 7.19117 88.801 6.9237 88.2686 7.15064H88.2702Z" fill="#0213B0"/>
<path d="M86.0953 0.492676C84.0626 0.492676 82.7155 1.59657 82.7704 3.41857C82.8252 5.1579 84.09 6.34447 86.1228 6.34447C88.1555 6.34447 89.4477 5.1579 89.4477 3.41857C89.4477 1.67925 88.1281 0.492676 86.0953 0.492676Z" fill="#0213B0"/>
<path d="M96.3427 0.863487H90.9672C90.4946 0.863487 90.1945 1.27684 90.2993 1.70803C90.6543 3.17179 90.8188 4.93867 90.8188 7.32478V25.1768C90.8188 25.5578 91.1253 25.8657 91.5045 25.8657H96.3427C96.7218 25.8657 97.0283 25.5578 97.0283 25.1768V1.55403C97.0283 1.1731 96.7218 0.865108 96.3427 0.865108V0.863487Z" fill="#0213B0"/>
<path d="M17.607 0.863487H10.9297C10.4925 0.863487 10.2021 1.24118 10.3408 1.67074C10.7942 3.0648 10.7538 4.31135 10.6635 5.47522L9.61969 19.1856C9.58904 19.5828 9.10183 19.5828 9.07279 19.1856L8.04029 5.47522C7.94995 4.31135 7.90962 3.06642 8.36295 1.67074C8.5033 1.24118 8.21291 0.863487 7.7741 0.863487H0.916071C0.404663 0.863487 0.0836208 1.33844 0.286893 1.82474C0.895098 3.28364 1.19033 4.7166 1.36295 5.91613L4.20392 24.9855C4.27975 25.4913 4.71211 25.8657 5.2219 25.8657H13.2899C13.7997 25.8657 14.232 25.4913 14.3079 24.9855L17.1601 5.91613C17.3344 4.7166 17.6296 3.28364 18.2362 1.82474C18.4395 1.33682 18.1168 0.863487 17.607 0.863487Z" fill="#0213B0"/>
<path d="M114.152 25.0232L108.797 14.9341C108.67 14.6958 108.605 14.4688 108.605 14.2711C108.605 13.6908 109.009 13.185 110.08 13.185C110.638 13.185 111.057 13.2418 111.614 13.3617C111.969 13.4379 112.304 13.2272 112.304 12.8008V7.48722C112.304 6.85179 111.687 6.73345 110.975 6.73345C107.106 6.73345 105.959 9.51832 105.714 12.4345C105.64 13.3163 105.421 13.6924 105.035 13.6924C104.909 13.6924 104.829 13.613 104.829 13.433V1.55437C104.829 1.17343 104.522 0.865445 104.143 0.865445H98.7675C98.2948 0.865445 97.9947 1.2788 98.0996 1.70998C98.4545 3.17374 98.619 4.94063 98.619 7.32674V25.1788C98.619 25.5597 98.9256 25.8677 99.3047 25.8677H104.143C104.522 25.8677 104.829 25.5597 104.829 25.1788V19.2281C104.829 19.0206 105.045 18.9541 105.116 19.1519L107.376 25.2469C107.502 25.6197 107.85 25.8693 108.242 25.8693H113.648C114.11 25.8693 114.357 25.4073 114.153 25.0248L114.152 25.0232Z" fill="#0213B0"/>
<path d="M37.102 6.73147C35.4451 6.73147 34.0464 7.15455 32.9058 8.32004C32.7977 8.43027 32.6122 8.35246 32.6122 8.19847V7.77863C32.6122 7.3977 32.3057 7.08971 31.9266 7.08971H26.8706C26.3963 7.08971 26.0978 7.5063 26.2043 7.93911C26.5592 9.40125 26.7222 11.1665 26.7222 13.551V25.1768C26.7222 25.5577 27.0287 25.8657 27.4078 25.8657H32.246C32.6251 25.8657 32.9316 25.5577 32.9316 25.1768V12.8329C32.9316 11.9559 33.3995 11.4518 34.1416 11.4518C34.8289 11.4518 35.2677 11.9543 35.2677 12.8329V25.1768C35.2677 25.5577 35.5742 25.8657 35.9533 25.8657H40.7915C41.1706 25.8657 41.4772 25.5577 41.4772 25.1768V11.4259C41.4772 8.40758 39.7364 6.73147 37.0987 6.73147H37.102Z" fill="#0213B0"/>
<path d="M77.2094 6.73147C75.4816 6.73147 73.9893 7.41553 73.0213 8.42054C72.9068 8.53888 72.7535 8.53077 72.6632 8.38488C71.9921 7.31016 70.8127 6.73147 69.1672 6.73147C67.5217 6.73147 66.1617 7.39445 65.1743 8.34922C65.0663 8.45459 64.884 8.37678 64.884 8.2244V7.78025C64.884 7.39932 64.5774 7.09133 64.1983 7.09133H59.1423C58.668 7.09133 58.3696 7.50792 58.476 7.94073C58.831 9.40287 58.9939 11.1681 58.9939 13.5526V25.1784C58.9939 25.5593 59.3004 25.8673 59.6795 25.8673H64.5177C64.8969 25.8673 65.2034 25.5593 65.2034 25.1784V12.8313C65.2034 12.0175 65.4889 11.4551 66.2294 11.4551C66.9167 11.4551 67.128 12.0192 67.128 12.8361V25.18C67.128 25.561 67.4345 25.869 67.8137 25.869H72.6519C73.031 25.869 73.3375 25.561 73.3375 25.18V12.8005C73.3456 12.0078 73.6327 11.4567 74.3636 11.4567C75.0508 11.4567 75.2622 12.0208 75.2622 12.8378V25.1816C75.2622 25.5626 75.5687 25.8706 75.9478 25.8706H80.786C81.1651 25.8706 81.4716 25.5626 81.4716 25.1816V11.4307C81.4716 8.52429 79.9874 6.73633 77.2078 6.73633L77.2094 6.73147Z" fill="#0213B0"/>
<path d="M50.8195 6.73147C48.6319 6.73147 46.0845 7.20318 44.0518 8.88901C43.8405 9.0657 43.7162 9.32668 43.7162 9.60225V13.8201C43.7162 14.3242 44.2873 14.603 44.681 14.2626C46.7121 12.5055 48.7077 11.4794 50.1468 11.4794C50.9163 11.4794 51.3841 11.6885 51.3841 12.2931C51.3841 13.2495 50.0371 13.6337 47.5494 14.7635C45.1698 15.8431 42.5628 17.4333 42.5628 21.0611C42.5628 24.3468 44.5987 26.1786 47.2622 26.1786C49.3837 26.1786 50.5146 25.4313 51.3454 24.4733C51.4487 24.3533 51.6455 24.4279 51.6455 24.5867V25.1768C51.6455 25.5577 51.952 25.8657 52.3311 25.8657H56.7709C57.15 25.8657 57.4565 25.5577 57.4565 25.1768V13.0598C57.4565 8.71719 55.3318 6.73147 50.8195 6.73147ZM51.5277 19.5535C51.5277 20.8795 50.8679 21.6025 49.9677 21.6025C49.3079 21.6025 48.7077 21.1502 48.7077 20.2473C48.7077 18.7949 50.1532 17.9763 51.3019 16.9826C51.3906 16.9065 51.5277 16.9697 51.5277 17.088V19.5535Z" fill="#0213B0"/>
<path d="M110.685 4.23552C109.688 4.23552 108.935 3.52228 108.935 2.48808C108.935 1.45389 109.667 0.740649 110.685 0.740649C111.703 0.740649 112.435 1.49117 112.435 2.48808C112.435 3.485 111.703 4.23552 110.685 4.23552ZM110.685 1.06161C109.849 1.06161 109.301 1.65489 109.301 2.48808C109.301 3.32128 109.849 3.91456 110.685 3.91456C111.521 3.91456 112.069 3.32128 112.069 2.48808C112.069 1.65489 111.521 1.06161 110.685 1.06161Z" fill="#0213B0"/>
<path d="M111.18 2.78767C111.175 2.77956 111.18 2.76821 111.188 2.76335C111.417 2.65312 111.542 2.43429 111.542 2.15872C111.542 1.99662 111.487 1.46817 110.787 1.46817H110.02C109.98 1.46817 109.967 1.49411 109.98 1.52491C110.017 1.61893 110.035 1.67728 110.035 1.88801V3.36636C110.035 3.3923 110.056 3.41337 110.082 3.41337H110.456C110.482 3.41337 110.503 3.3923 110.503 3.36636V2.86223C110.503 2.85251 110.511 2.8444 110.52 2.8444H110.682C110.69 2.8444 110.698 2.84926 110.703 2.85737L110.954 3.38257C110.964 3.4004 110.982 3.41337 111.003 3.41337H111.471C111.509 3.41337 111.525 3.38095 111.508 3.34853L111.18 2.78442V2.78767ZM110.74 2.49589H110.52C110.511 2.49589 110.503 2.48778 110.503 2.47806V1.87505C110.503 1.86532 110.511 1.85721 110.52 1.85721H110.74C111.024 1.85721 111.067 2.05498 111.067 2.17169C111.067 2.26895 111.035 2.49751 110.74 2.49751V2.49589Z" fill="#0213B0"/>
</svg>
